<svg width="307" height="12" viewBox="0 0 307 12" fill="none" xmlns="http://www.w3.org/2000/svg">
<mask id="mask0_49_2" style="mask-type:alpha" maskUnits="userSpaceOnUse" x="0" y="0" width="307" height="12">
<rect width="307" height="12" fill="#C4C4C4"/>
</mask>
<g mask="url(#mask0_49_2)">
<path d="M49.8283 -2.53796L50.7692 -2.69614L48.9382 -2.92292L49.8159 -3.08892C50.6961 -3.0874 51.8364 -2.83866 52.457 -2.97083C52.5328 -3.09879 51.5744 -3.13986 51.3298 -3.24181C51.1134 -3.34631 50.9368 -3.45013 50.8021 -3.55202C51.2814 -3.55092 51.8084 -3.52628 52.3517 -3.47953C53.0825 -3.40318 53.7994 -3.36607 54.4231 -3.37229C55.6986 -3.35167 56.9308 -3.37224 58.3175 -3.36771L57.8561 -3.67567L59.6433 -3.60362C59.8327 -3.58016 60.0585 -3.61789 60.2446 -3.58887C61.7934 -3.34329 62.4488 -3.47711 63.1923 -3.58807C63.3448 -3.61678 63.5284 -3.63822 63.7384 -3.65182C65.8046 -3.593 67.6677 -3.24878 69.5284 -3.07207C69.8786 -3.02695 70.2145 -2.96904 70.5123 -2.90243C71.1595 -2.77295 71.8794 -2.66724 72.6062 -2.59496C73.3329 -2.52269 74.0433 -2.48616 74.6724 -2.48871C76.0636 -2.49157 77.6353 -2.40593 79.2355 -2.24008C79.7114 -2.18545 80.1875 -2.14941 80.6336 -2.13426C81.0798 -2.11911 81.4861 -2.12517 81.8266 -2.15207L82.9084 -1.97627C83.3774 -2.04761 83.9721 -2.08675 84.6563 -2.09131C85.3406 -2.09588 86.1001 -2.06577 86.889 -2.00283C87.7296 -1.93455 88.5834 -1.88852 89.4556 -1.81633C91.2572 -1.67832 93.0106 -1.59392 94.6612 -1.56575C97.1194 -1.48225 99.5211 -1.4177 102.001 -1.31361C103.552 -1.26336 105.064 -1.23573 106.527 -1.23085C108.279 -1.21119 110.174 -1.11605 112.121 -0.950019V-0.950019C112.029 -0.794239 111.175 -0.840261 110.602 -0.845533C108.754 -0.871424 106.862 -0.938519 104.96 -0.988921C104.103 -1.00859 103.27 -1.01605 102.466 -1.01122C101.12 -1.01768 99.7021 -1.05919 98.2353 -1.13504C95.9182 -1.2185 93.675 -1.25861 91.5289 -1.25498C91.3606 -1.24881 91.2065 -1.23788 91.069 -1.22236C91.0403 -1.20892 91.0346 -1.19198 91.0525 -1.17315C91.0704 -1.15433 91.1113 -1.13424 91.1712 -1.11484C91.2312 -1.09543 91.3081 -1.07735 91.3947 -1.06231C91.4814 -1.04728 91.5748 -1.0358 91.6661 -1.02897C92.5185 -0.9234 93.434 -0.810013 94.2378 -0.794062C94.2689 -0.79287 94.302 -0.790148 94.3347 -0.786091C94.3675 -0.782033 94.3991 -0.776743 94.4272 -0.770602C96.2267 -0.54773 97.7063 -0.585445 99.1081 -0.549185C101.435 -0.451184 103.679 -0.405408 105.805 -0.412548C106.126 -0.412062 106.473 -0.399323 106.833 -0.374789C109.059 -0.27534 111.141 -0.264217 112.981 -0.341924C113.738 -0.36161 114.442 -0.405805 115.256 -0.406544C115.757 -0.409586 116.193 -0.437788 116.538 -0.489463C116.883 -0.541139 117.13 -0.615218 117.264 -0.707246C117.607 -0.658794 117.956 -0.615613 118.305 -0.57822C118.514 -0.556839 118.715 -0.551159 118.866 -0.562348C119.017 -0.573536 119.108 -0.600756 119.121 -0.638501C119.183 -0.744208 118.706 -0.797294 118.293 -0.842561C118.542 -0.865231 118.823 -0.878568 119.13 -0.88225C120.854 -0.906404 122.703 -0.877895 124.637 -0.797352C126.138 -0.700943 127.337 -0.779413 128.917 -0.643456C129.107 -0.619996 129.262 -0.65443 129.437 -0.662697C129.891 -0.706236 130.458 -0.716022 131.087 -0.6912C131.716 -0.666377 132.388 -0.607696 133.046 -0.520244C133.865 -0.759165 135.635 -0.486219 136.942 -0.461689C137.345 -0.340185 136.883 -0.361546 136.863 -0.328164C136.843 -0.294783 136.863 -0.328172 136.705 -0.347722C135.4 -0.175652 133.612 -0.138131 131.593 -0.240434C131.219 -0.240009 130.863 -0.23217 130.528 -0.216993C130.021 -0.195511 129.449 -0.197656 128.838 -0.223334C128.169 -0.242193 127.556 -0.233236 127.026 -0.196896C126.721 -0.197487 126.463 -0.179283 126.276 -0.143957C126.09 -0.108631 125.98 -0.0573287 125.957 0.00518089C126.161 0.05337 126.386 0.097464 126.625 0.135712C127.873 0.28673 129.118 0.34924 130.114 0.310943C131.847 0.244959 133.91 0.30935 135.753 0.286823C136.999 0.277697 138.325 0.303692 139.706 0.36432C139.706 0.36432 139.67 0.425518 139.666 0.431082C139.83 0.457579 140.001 0.478838 140.172 0.493644C140.172 0.493644 140.172 0.493644 140.188 0.465826C140.112 0.439113 140.01 0.413982 139.892 0.393344L139.482 0.342511C139.761 0.329283 140.021 0.289898 140.312 0.313961C140.924 0.358668 141.51 0.377542 142.033 0.369461C142.556 0.361381 143.006 0.326508 143.356 0.266938C143.976 0.190591 144.747 0.155871 145.619 0.165021C146.287 0.156686 146.931 0.138772 147.548 0.111368C147.548 0.111368 147.588 0.0446112 147.88 0.00912892C147.603 -0.0346342 147.315 -0.0703697 147.028 -0.0964381C145.779 -0.161567 144.526 -0.221133 143.299 -0.265661C142.847 -0.27047 142.422 -0.26301 142.032 -0.243424C140.952 -0.220505 139.738 -0.253034 138.462 -0.339115C138.462 -0.339115 138.21 -0.370394 138.084 -0.386034C138.442 -0.532787 139.676 -0.38587 140.176 -0.485255C140.479 -0.483446 141.014 -0.470948 140.996 -0.497113C140.954 -0.532027 140.949 -0.564462 140.981 -0.592092C141.013 -0.619721 141.082 -0.641861 141.181 -0.656922C141.281 -0.671983 141.409 -0.679597 141.558 -0.67921C141.706 -0.678823 141.87 -0.670443 142.038 -0.654682C143.443 -0.569418 144.767 -0.545707 145.928 -0.585001C146.368 -0.584243 146.861 -0.558972 147.298 -0.55265C147.565 -0.545035 147.81 -0.54927 148.017 -0.565121C149.072 -0.681864 150.492 -0.690389 152.064 -0.589418C152.824 -0.553116 153.533 -0.548262 154.157 -0.575102C154.6 -0.579907 154.788 -0.496906 155.104 -0.457806L156.444 -0.375382L154.723 -0.272102C155.091 -0.0354179 155.383 0.0426251 155.984 0.0573705C156.862 0.0796379 157.716 0.0896979 158.542 0.0874877C159.153 0.0855424 159.658 0.0345702 160.485 0.125104C160.631 0.139871 160.772 0.144651 160.884 0.138641C161.853 0.0582667 163.02 0.0398204 164.305 0.0845619C164.97 -0.0659459 166.103 0.0803869 167.152 0.198291C167.49 0.0849194 166.877 0.0328772 166.511 -0.0362976C167.388 -0.0292168 168.272 -0.0332599 169.177 -0.0167055C169.449 -0.0227325 169.76 -0.0124231 170.086 0.0134103C170.412 0.0392437 170.743 0.0798934 171.054 0.132183C171.205 0.165969 171.388 0.191397 171.564 0.203187C171.74 0.214977 171.896 0.212226 171.999 0.195505C172.469 0.146192 173.221 0.191612 173.61 0.108314C173.748 0.0891568 173.945 0.0864825 174.166 0.100758C174.387 0.115034 174.618 0.145337 174.817 0.186233V0.186233C174.599 0.198992 174.405 0.219086 174.24 0.246069C173.645 0.333725 173.864 0.480187 174.619 0.69312C175.778 0.681409 176.962 0.684735 178.036 0.644603C178.635 0.608578 179.369 0.61984 180.155 0.677124C180.941 0.734407 181.748 0.835441 182.486 0.968863C182.753 1.02017 183.058 1.0557 183.339 1.06841C183.62 1.08112 183.858 1.07007 184.005 1.03745C184.096 0.999727 184.124 0.951984 184.087 0.898362L183.329 0.804525C183.329 0.804525 183.359 0.754452 183.366 0.743325L184.455 0.734912C185.031 0.734621 185.632 0.74937 186.177 0.745168C186.977 0.717224 187.891 0.7328 188.861 0.790929C189.756 0.850534 190.636 0.895588 191.492 0.925694C192.321 0.956683 192.922 0.857894 193.71 0.842118C194.307 0.830226 194.963 0.842935 195.654 0.879746C196.847 0.945035 197.942 0.945156 198.839 0.880097C199.885 1.23062 200.393 1.28761 201.364 1.1929L201.821 1.16584L201.946 1.24102L202.295 1.22449C202.947 1.20976 203.6 1.19504 204.281 1.18979C205.227 1.22232 206.25 1.30984 207.248 1.4438C207.437 1.46726 207.695 1.54697 207.861 1.60937C208.028 1.67178 208.39 1.86004 208.657 1.98259C208.366 2.07206 208.045 2.15761 207.814 2.26046C207.791 2.27803 207.793 2.29898 207.821 2.32163C207.848 2.34428 207.9 2.36799 207.972 2.39087C208.045 2.41374 208.135 2.43513 208.236 2.45333C208.338 2.47153 208.447 2.48602 208.556 2.49565C208.768 2.51639 208.978 2.53021 209.176 2.53656C210.151 2.5475 211.085 2.53937 211.969 2.51224C212.291 2.47398 212.733 2.47034 213.224 2.50192C213.715 2.5335 214.227 2.59848 214.678 2.68656C215.834 2.63368 217.178 2.6493 218.616 2.73233C220.137 2.68183 221.974 2.78396 223.395 2.67331C223.362 2.72895 223.509 2.82473 223.713 2.87992C224.037 2.96375 224.403 3.04144 224.797 3.1097L227.802 3.24297C227.914 3.3115 228.054 3.38087 228.221 3.45018C228.335 3.50493 228.534 3.55851 228.775 3.59955C229.017 3.64059 229.282 3.66588 229.514 3.67005C230.112 3.69036 230.613 3.64495 231.326 3.75713C230.228 3.86318 228.748 3.84909 227.148 3.71738C225.645 3.6172 224.199 3.56714 222.864 3.56904C222.424 3.56828 221.844 3.57413 221.707 3.63473C221.402 3.80599 220.605 3.77892 219.675 3.74733C218.944 3.71275 218.277 3.71663 217.727 3.75865C217.178 3.80068 216.763 3.87965 216.515 3.98907C216.453 4.09477 216.603 4.185 217.244 4.24651L219.911 4.49316C220.304 4.46145 220.676 4.42391 221.028 4.3807C221.619 4.32331 222.35 4.30756 223.163 4.33467C223.975 4.36178 224.848 4.43102 225.713 4.53701C226.155 4.59175 226.597 4.64649 226.918 4.62048C227.199 4.5906 227.458 4.55483 227.693 4.51343C227.74 4.48568 227.759 4.45374 227.749 4.41885C227.919 4.43507 228.089 4.45617 228.254 4.48141C229.57 4.77585 230.59 4.77075 231.516 4.69438C231.767 4.67168 231.958 4.63559 232.212 4.60733C232.466 4.57906 232.555 4.54238 232.786 4.55306C234.627 4.64962 235.157 4.32709 236.708 4.34004C236.783 4.32744 236.83 4.30861 236.844 4.28527C236.858 4.26194 236.838 4.23486 236.787 4.20652C236.677 4.18093 236.551 4.15893 236.418 4.14253C236.286 4.12613 236.152 4.11587 236.029 4.11268C235.315 4.07129 234.685 4.08398 234.246 4.14858C233.935 4.17498 233.605 4.19602 233.26 4.21157L231.706 3.7445C233.211 3.78732 234.634 3.78704 235.943 3.74367C236.228 3.71931 236.712 3.76127 237.114 3.76925L240.07 3.8129C240.678 3.81652 241.196 3.7433 242.043 3.91398C242.043 3.91398 242.603 3.94151 242.752 3.9182C242.902 3.8949 243.564 3.74995 243.959 3.65553C244.417 3.68245 245.052 3.75509 245.337 3.73074C245.836 3.67092 246.268 3.59423 246.625 3.50205L248.411 3.63364C248.409 3.75054 248.344 3.86051 248.216 3.96189C248.077 4.05966 248.082 4.17702 248.23 4.30437C248.379 4.43173 248.666 4.56546 249.07 4.69465L250.833 5.37885C251.121 5.42467 251.428 5.45551 251.712 5.46719C251.996 5.47887 252.243 5.47082 252.421 5.44413C253.18 5.3649 254.03 5.30296 254.788 5.22373C255.767 5.34494 255.515 5.54072 256.227 5.71245L258.531 5.99788C258.883 6.26238 259.241 6.51575 258.172 6.6043C257.96 6.61979 258.103 6.72114 257.909 6.76279C258.74 6.96129 259.654 7.02071 260.496 7.14297C260.828 7.2309 261.106 7.32397 261.316 7.41769C261.547 7.55882 262.014 7.70298 262.617 7.81904C263.221 7.9351 263.911 8.01375 264.54 8.03801C265.596 8.11232 266.676 8.22392 267.734 8.36782C268.095 8.41785 268.466 8.45431 268.822 8.47473C269.178 8.49515 269.511 8.49906 269.798 8.48619C270.821 8.46353 271.687 8.38562 272.34 8.25752C272.985 8.14881 273.855 8.09641 274.87 8.10508C276.607 8.32014 276.957 8.64419 278.007 8.9296L276.192 8.9616C276.127 9.07287 276.247 9.21317 275.503 9.2106C274.759 9.20803 275.136 9.3145 275.377 9.42201C275.462 9.4761 275.628 9.53173 275.847 9.5795C276.066 9.62726 276.324 9.66422 276.578 9.68412L278.123 9.82174C278.671 9.87411 279.201 9.89647 279.655 9.88637C280.109 9.87627 280.47 9.8341 280.698 9.76449C280.96 9.69838 281.321 9.65367 281.759 9.63308C282.317 9.57916 282.776 9.49896 283.119 9.39552L285.301 9.54623C285.394 9.44228 285.693 9.3694 286.149 9.3399C286.605 9.31039 287.189 9.32608 287.803 9.38432L289.273 9.47682C290.907 9.57774 291.266 9.54452 291.745 9.25146L289.784 8.72799C290.069 8.59011 290.344 8.46891 290.62 8.34772C290.131 8.17526 289.48 8.01215 288.731 7.87494C288.032 7.72751 287.314 7.58472 286.579 7.44712C285.781 7.30651 284.938 7.18425 283.948 7.02574C283.775 6.97446 283.524 6.88363 283.203 6.79611C282.882 6.71107 282.547 6.6277 282.199 6.54634C282.265 6.43507 282.324 6.33493 282.197 6.20576C282.807 6.24697 283.437 6.31906 284.031 6.41551C284.625 6.51197 285.163 6.62976 285.597 6.75826C285.67 6.78105 285.76 6.80246 285.86 6.82104C285.96 6.83961 286.068 6.85493 286.178 6.86594C287.249 6.9449 287.761 7.10985 288.285 7.3121C288.638 7.41549 289.093 7.50731 289.587 7.57481C290.534 7.69212 291.461 7.8428 292.367 7.97289C292.644 8.01623 292.932 8.05191 293.219 8.07845C294.166 8.16284 295.118 8.28084 296.029 8.42645C296.326 8.46346 296.611 8.51243 296.86 8.56928C297.11 8.62613 297.316 8.68919 297.462 8.75322C297.236 8.82336 297.115 8.9119 297.104 9.0135C297.065 9.08026 297.73 9.21636 298.044 9.31501C298.358 9.41365 297.742 9.36717 297.533 9.3771C296.674 9.39618 296.515 9.43617 297.029 9.65512C297.201 9.72396 297.315 9.79285 297.364 9.85749C297.413 9.92213 297.396 9.98116 297.315 10.0309C297.193 10.2367 296.821 10.4058 296.566 10.6071C296.962 10.7397 297.624 10.8814 297.696 11.0456C297.731 11.082 297.804 11.1206 297.91 11.1586C298.017 11.1965 298.154 11.2329 298.311 11.2651C298.727 11.3346 299.105 11.4177 299.416 11.508C299.726 11.5983 299.962 11.6933 300.104 11.7857C300.15 11.824 300.262 11.8645 300.418 11.8993C300.573 11.934 300.76 11.9604 300.942 11.9731C301.158 11.9887 301.352 11.9867 301.484 11.9674C301.615 11.948 301.673 11.913 301.647 11.8694C301.652 11.7874 301.624 11.702 301.561 11.6139C301.597 11.5527 301.634 11.4915 301.49 11.3901C302.138 11.4271 302.817 11.5012 303.455 11.6045C304.093 11.7077 304.664 11.836 305.108 11.9756C305.599 12.1199 306.051 12.2715 306.595 12.4404C306.483 12.6295 306.483 12.6295 307.64 12.964L313.779 13.1271L315.037 13.3486C316.21 13.5417 316.489 13.5284 317.226 13.4286L317.722 13.3348C318.764 13.4638 319.964 13.6124 320.615 13.3706C320.827 13.5282 320.965 13.5811 320.917 13.6051C320.606 13.8376 320.065 14.0349 319.317 14.1892C319.126 14.2253 318.992 14.2803 318.769 14.3125C318.052 14.4941 317.886 14.7747 318.304 15.097C318.512 15.2396 318.814 15.3856 319.2 15.5303C318.635 15.7312 317.887 15.8976 316.975 16.0252C316.201 16.1238 315.564 16.2559 315.082 16.4177C314.649 16.5809 314 16.7035 313.174 16.7786C312.754 16.8105 312.448 16.8735 312.286 16.9613C312.238 17.1989 312.349 17.4533 312.616 17.7188C312.667 17.7996 312.81 17.8869 313.035 17.9738C313.26 18.0607 313.56 18.1449 313.912 18.2197C313.912 18.2197 314.082 18.2766 314.163 18.3105C314.231 18.5983 313.977 18.8519 313.418 19.0543C313.326 19.1117 313.138 19.1532 312.875 19.1742C312.612 19.1953 312.283 19.1951 311.923 19.1738C311.164 19.1395 310.455 19.1353 309.721 19.116C308.93 19.0888 308.233 19.1102 307.704 19.1782C307.175 19.2461 306.833 19.3579 306.714 19.502C306.706 19.5427 306.683 19.5818 306.644 19.6188C306.622 19.6379 306.61 19.6584 306.608 19.68L308.294 20.1516L306.387 20.3393C306.275 20.5285 307.19 20.6419 307.649 20.7823L307.365 20.8607C307 20.905 306.508 20.8202 306.063 20.771L305.621 20.7163L305.568 20.8053C305.293 20.9265 304.29 20.7903 303.898 20.8791C303.507 20.968 303.786 21.0683 304.373 21.1648C304.78 21.2366 305.218 21.2938 305.653 21.3322C306.089 21.3706 306.509 21.3891 306.885 21.3864C307.109 21.3769 307.294 21.3552 307.431 21.3226C308.222 21.184 309.097 21.0648 310.048 20.966C310.777 20.8772 311.69 20.8395 312.723 20.8554C313.026 20.8487 313.391 20.8697 313.755 20.9147C314.119 20.9598 314.458 21.026 314.712 21.1017V21.1017L315.247 21.1142C315.247 21.1142 315.539 21.1922 315.498 21.205C315.294 21.4362 315.531 21.7189 316.172 22.0111V22.0111L315.614 22.0376C314.817 22.0105 315.323 22.1866 315.203 22.2734C314.637 22.257 313.901 22.1837 313.633 22.2938L313.231 22.2858L313.388 22.3054L313.579 22.2693L314.329 22.4338C313.974 22.4615 313.716 22.4953 313.403 22.5102C313.229 22.5231 313.091 22.546 312.997 22.5774C312.903 22.6088 312.854 22.6481 312.854 22.693C312.855 22.762 312.761 22.8201 312.582 22.8617C312.403 22.9033 312.145 22.9271 311.832 22.9307C311.458 22.9322 311.244 23.0072 311.025 23.0339L311.977 23.4862C311.977 23.4862 311.503 23.4275 311.761 23.5072L311.794 23.4516L312.371 23.5648C312.787 23.6641 313.077 23.6881 313.323 23.617C313.568 23.5459 313.512 23.6405 313.63 23.6133C313.587 23.6856 313.32 23.7361 313.091 23.7794C312.826 23.8134 312.527 23.8385 312.199 23.8541C312.79 24.1722 312.819 24.1816 311.955 24.2658C311.092 24.35 311.39 24.4765 310.668 24.4945C309.945 24.5126 310.767 24.7278 311.25 24.7697C311.609 24.7973 311.974 24.8403 312.321 24.8957C312.669 24.9511 312.99 25.0176 313.263 25.0906L313.118 25.3354C312.905 25.3152 312.692 25.2888 312.486 25.2572C311.786 25.1228 311.15 24.9962 310.527 25.0743L310.824 25.2604L308.651 25.1525C308.707 25.2919 309.039 25.4507 309.575 25.5954V25.5954C309.494 25.6748 309.444 25.7585 309.426 25.8457C309.39 25.9069 309.176 25.8684 309.036 25.875C308.539 25.8853 308.13 25.9267 307.847 25.9958C307.564 26.0648 307.415 26.1594 307.412 26.2711C307.356 26.3656 308.121 26.5619 308.599 26.5554C309.793 26.5743 311.085 26.6471 312.403 26.7698C313.207 26.7857 313.32 26.537 314.643 26.7068C314.669 26.8216 314.5 26.9146 314.16 26.9717C313.821 27.0288 313.33 27.0468 312.761 27.0231C313.085 27.2782 314.875 27.3447 314.954 27.6113C314.508 27.5924 314.032 27.5481 313.571 27.4827C313.111 27.4173 312.682 27.3331 312.329 27.2383C312.252 27.215 312.157 27.1934 312.05 27.1757C311.944 27.158 311.83 27.1447 311.72 27.137C311.609 27.1293 311.506 27.1274 311.419 27.1316C311.332 27.1358 311.264 27.1459 311.222 27.161C311.47 27.2574 311.743 27.3688 312.054 27.473C312.365 27.5772 312.44 27.6223 312.664 27.6442C314.337 27.8514 315.133 28.2246 316.581 28.4696C316.959 28.5165 317.006 28.6657 316.678 28.6488C316.365 28.632 316.081 28.6342 315.86 28.6552C315.638 28.6762 315.486 28.7152 315.421 28.7679C315.178 28.8293 314.876 28.8782 314.522 28.9133C316.006 29.2963 317.776 29.6347 319.666 29.8968C320.023 29.9486 320.397 29.9801 320.73 29.9869C321.785 29.9872 322.904 30.0176 324.066 30.0774C324.477 30.0937 324.858 30.0922 325.186 30.0729C326.264 30.0272 327.12 30.1273 327.902 30.4092L329.195 30.8561C329.153 30.9284 328.935 31.009 328.768 31.1197L329.779 31.3584L337.492 30.8087L339.04 31.3409L341.261 31.3113C341.431 31.3267 341.602 31.3479 341.766 31.3739C342.215 31.531 342.566 31.682 343.053 31.8319C343.54 31.9818 344.411 32 345.018 32.1767C345.625 32.3534 346.232 32.3571 346.983 32.462C347.054 32.5988 346.981 32.7219 346.769 32.8236C346.7 32.9405 346.318 33.0127 346.252 33.1239C346.26 33.2364 346.118 33.3319 345.84 33.4017C345.562 33.4715 345.156 33.5135 344.66 33.5239C343.27 33.7633 341.594 33.9338 339.683 34.0302C339.515 34.0372 339.376 34.0534 339.274 34.0778C339.172 34.1021 339.11 34.1342 339.091 34.1719C339.094 34.281 338.966 34.3754 338.718 34.4479C338.47 34.5205 338.107 34.5695 337.656 34.5914C337.536 34.5958 337.446 34.6095 337.396 34.6308C337.225 34.6445 337.1 34.6708 337.034 34.7071C336.968 34.7435 336.963 34.7886 337.019 34.8381C337.074 34.8877 337.19 34.94 337.353 34.99C337.516 35.04 337.722 35.086 337.951 35.1235C338.283 35.1841 338.622 35.242 338.966 35.2971C338.947 35.3305 338.605 35.3359 338.654 35.3659C338.789 35.4619 338.821 35.5519 338.746 35.6286C338.671 35.7054 338.492 35.7668 338.223 35.8082L340.066 36.5859C341.185 36.6936 342.283 36.8763 343.151 37.0993C343.152 37.1358 343.102 37.1664 343.006 37.1881C342.91 37.2097 342.771 37.2216 342.603 37.2226C342.153 37.2385 341.728 37.2695 341.243 37.2871C340.947 37.3002 340.7 37.3291 340.518 37.3721C340.335 37.4151 340.221 37.4714 340.18 37.5376L341.262 37.8269C340.916 37.8974 340.658 37.9312 340.429 37.9745C340.559 38.0655 340.782 38.1595 341.082 38.2494C341.381 38.3393 341.748 38.4226 342.155 38.4929C342.265 38.5074 342.376 38.518 342.483 38.524C342.59 38.5301 342.69 38.5315 342.778 38.5282C343.617 38.429 344.597 38.6042 345.549 38.7699C346.502 38.9356 347.019 39.0355 347.722 39.1644L349.067 39.1817C349.407 39.2427 349.711 39.3144 349.954 39.3912C350.197 39.4679 350.372 39.5475 350.465 39.6236C350.393 39.746 349.755 39.679 349.375 39.6916C348.473 39.7678 347.287 39.7515 346.013 39.6455C345.698 39.6064 345.374 39.638 345.067 39.6417C344.404 39.657 343.767 39.6818 343.159 39.716C342.758 39.7479 342.384 39.7873 342.038 39.834C341.946 39.9898 343.4 40.1101 342.575 40.1871C342.859 40.2223 342.965 40.2713 343.111 40.2536C344.047 40.3547 344.969 40.4047 345.771 40.3978C347.309 40.3763 349.055 40.4473 350.867 40.6049C352.822 40.7683 354.698 40.8368 356.339 40.805C356.965 40.8032 357.663 40.8366 358.383 40.9028C359.232 40.9945 360.075 41.0521 360.858 41.072C361.117 41.0727 361.406 41.0883 361.7 41.1175C361.995 41.1468 362.288 41.1888 362.554 41.2403V41.2403C362.531 41.2792 362.277 41.3075 362.334 41.3264C363.144 41.6179 363.472 41.9213 364.719 42.2191C365.571 42.3246 366.55 42.4458 367.107 42.3059C367.665 42.1659 367.465 42.0456 366.356 41.6872C366.596 41.6821 366.886 41.6988 367.175 41.7345C367.463 41.7703 367.732 41.8227 367.934 41.8827L368.894 42.1509L369.758 42.4072C369.682 42.5352 369.623 42.6353 369.56 42.7411C369.461 42.8533 369.57 42.99 369.871 43.1319C370.052 43.2093 370.211 43.2868 370.344 43.3636C370.884 43.6707 371.041 43.961 370.796 44.2019C370.326 44.5483 369.672 44.867 368.842 45.1543C367.965 45.4338 367.484 45.7864 366.762 46.0911C366.393 46.2298 365.945 46.3541 365.423 46.4627C364.433 46.7044 363.348 46.9343 362.354 47.1815C361.36 47.4286 360.238 47.6062 359.135 47.8099C357.492 48.0517 355.716 48.2605 353.817 48.4352C352.642 48.5883 351.435 48.7374 350.348 48.9134C349.064 49.1116 347.556 49.2541 345.861 49.337C344.364 49.4363 343.026 49.5832 341.874 49.7748C341.753 49.7956 341.658 49.8219 341.59 49.8532C341.383 50.0486 340.801 50.1863 339.935 50.2453C339.987 50.3025 340.055 50.3607 340.136 50.4196C340.256 50.4898 340.282 50.5554 340.208 50.6081C340.135 50.6607 339.966 50.698 339.724 50.7149C339.031 50.7633 338.455 50.8455 338.021 50.9579C337.862 50.986 337.763 51.0271 337.733 51.0775C337.704 51.1279 337.743 51.1861 337.85 51.2472C337.944 51.31 337.951 51.3678 337.87 51.4131C337.788 51.4585 337.623 51.4892 337.394 51.5013C336.807 51.5608 336.179 51.6086 335.513 51.6446C334.096 51.7238 332.449 51.7228 330.669 51.6418C330.48 51.6183 330.289 51.6544 330.068 51.627C328.809 51.5362 327.641 51.5221 326.703 51.5865C325.604 51.6116 324.455 51.6066 323.295 51.6184C321.621 51.6105 320.076 51.6583 318.704 51.7604C317.136 51.6617 316.255 51.8333 314.931 51.8366C313.709 51.8542 312.551 51.8964 311.468 51.963C309.721 52.0512 307.981 52.1283 306.259 52.2316C304.644 52.2808 303.157 52.3749 301.823 52.5123C301.312 52.5743 300.387 52.4777 300.038 52.6077C299.69 52.7378 298.988 52.7224 298.42 52.7656L296.628 52.8722C296.32 52.8975 295.982 52.9136 295.617 52.9201C293.952 52.9288 292.798 53.1025 291.252 53.1379L291.094 53.1184C288.349 53.3765 285.208 53.5182 281.763 53.5393C279.751 53.6185 277.55 53.6147 275.415 53.6727C274.905 53.7888 273.703 53.6457 273.064 53.7517C272.425 53.8577 271.381 53.7883 270.558 53.8057C269.734 53.8231 268.929 53.8667 268.049 53.8652C267.284 53.8657 266.639 53.913 266.171 54.0029C265.103 54.1515 263.802 54.2388 262.325 54.261C260.37 54.2996 258.522 54.3873 256.534 54.368C256.563 54.4763 256.441 54.5684 256.181 54.6349C255.921 54.7014 255.533 54.7398 255.056 54.7463C252.931 54.7876 251.003 54.8952 248.849 54.9271L248.273 54.9274L241.831 54.9895C240.096 55.0015 238.424 55.0214 236.654 55.035C235.991 54.9529 235.975 55.0943 235.516 55.0673C235.388 54.9977 235.237 54.967 235.011 55.0048L234.961 55.0882L227.61 55.1989C224.732 55.2799 221.704 55.3042 218.553 55.2716C217.805 55.2798 217.108 55.3074 216.471 55.3541C215.88 55.3711 215.265 55.3787 214.628 55.3766C213.766 55.3556 212.924 55.345 212.105 55.3449C209.951 55.3767 207.691 55.3595 205.332 55.3362C202.974 55.3128 201.187 55.3543 199.088 55.3511C197.667 55.3482 196.252 55.3342 194.78 55.3013C194.078 55.2859 193.212 55.2026 192.485 55.1722C191.757 55.1418 191.52 55.1423 191.424 55.1901C191.107 55.3241 190.311 55.2374 189.675 55.2244C188.434 55.2021 188.258 55.1564 187.921 54.8101L189.443 54.7C189.817 54.6645 190.286 54.6583 190.806 54.6819C191.326 54.7055 191.88 54.7582 192.413 54.835C192.623 54.8678 192.843 54.8938 193.059 54.9114C193.276 54.929 193.485 54.9378 193.674 54.9374C195.21 54.9186 196.725 54.8792 198.201 54.8471L198.417 54.826L198.43 54.5172C198.235 54.4868 198.033 54.4618 197.831 54.4429L190.426 54.2425C188.727 54.1933 186.963 54.0823 185.296 54.037C183.628 53.9917 182.729 53.964 181.436 53.9172C180.89 53.8906 180.333 53.8556 179.769 53.8124C179.802 53.7827 179.821 53.751 179.826 53.7178C179.855 53.6678 179.895 53.601 179.655 53.5475C179.394 53.4719 179.045 53.4073 178.678 53.3667C178.333 53.3399 177.999 53.3247 177.688 53.3217C176.186 53.2958 174.471 53.1327 172.908 52.8671L172.363 53.0444C170.016 52.9448 167.634 52.8468 165.182 52.7522C164.691 52.7264 164.176 52.6769 163.675 52.6074C163.139 52.5409 162.645 52.4021 162.08 52.3262C161.522 52.2715 160.967 52.2289 160.427 52.1991C160.573 52.1535 160.766 52.117 160.999 52.0909C161.229 52.0817 161.396 52.0532 161.477 52.0095C161.558 51.9658 161.548 51.9092 161.448 51.8479C161.274 51.7426 161.197 51.6435 161.577 51.6309C161.928 51.6069 162.18 51.5549 162.302 51.4811C162.423 51.4073 162.41 51.3148 162.264 51.2144C162.2 51.1557 162.155 51.0982 162.129 51.0424V51.0424L161.971 51.0228C161.451 50.815 160.411 50.7399 159.664 50.5699C159.312 50.5206 158.947 50.4922 158.628 50.4892C157.802 50.4527 156.998 50.4367 156.145 50.3907C155.737 50.3696 155.31 50.3309 154.89 50.2772C154.29 50.2029 154.227 50.1951 153.879 49.925C154.42 49.9297 154.849 49.8894 155.093 49.8108C155.337 49.7322 155.382 49.6202 155.219 49.4938C154.773 49.2175 154.301 48.9263 152.283 48.73C152.941 48.7203 153.575 48.7011 154.181 48.6724C154.357 48.6663 154.489 48.646 154.559 48.6143C154.629 48.5826 154.634 48.541 154.573 48.4951C154.511 48.4492 154.387 48.4012 154.216 48.3574C154.046 48.3137 153.837 48.2763 153.618 48.2503C152.552 48.0941 151.441 47.9895 150.408 47.9484C149.538 47.9302 148.752 47.9404 147.736 47.9399L146.536 47.7913C146.556 47.7579 146.38 47.7122 146.424 47.6939C146.729 47.5226 147.066 47.3553 147.412 47.1712C146.859 47.0718 146.38 46.9519 146.029 46.825C145.679 46.6982 145.472 46.5696 145.431 46.4541C145.401 46.4192 145.409 46.3874 145.454 46.361C145.499 46.3346 145.58 46.3142 145.691 46.3012C146.007 46.2788 146.251 46.2361 146.403 46.1764C146.556 46.1166 146.614 46.0414 146.573 45.9565L145.64 45.6439C142.831 45.4208 140.073 45.2615 137.416 45.1688L135.017 45.0987C134.728 45.015 134.818 44.9784 135.09 44.9763C135.362 44.9742 136.128 44.9973 136.663 45.0098C137.125 45.0262 137.535 45.0154 137.854 44.9785C138.172 44.9416 138.389 44.8798 138.482 44.7992L137.677 44.4426C137.716 44.3759 137.772 44.2813 138.209 44.2876C138.508 44.2799 138.727 44.2463 138.833 44.1922C138.939 44.1381 138.925 44.0668 138.792 43.9896C138.772 43.9338 138.802 43.8829 138.881 43.8394C139.527 43.8358 140.17 43.8377 140.756 43.8208C141.029 43.8151 141.26 43.7945 141.432 43.7602C141.605 43.7259 141.715 43.6787 141.755 43.622C141.776 43.5666 141.725 43.5035 141.605 43.4378C141.485 43.3721 141.3 43.3057 141.064 43.2438C140.146 43.1673 139.305 43.1663 138.728 43.2411C138.522 43.2997 138.191 43.3317 137.779 43.3329C137.367 43.3341 136.893 43.3044 136.419 43.2478C135.877 43.1825 135.336 43.1538 134.894 43.1669C134.451 43.1799 134.136 43.2339 134.005 43.319C133.449 43.286 132.955 43.2607 132.469 43.2243C131.894 43.1784 131.352 43.1648 130.899 43.1852C130.175 43.1995 129.394 43.1911 128.576 43.1602C126.215 43.0828 123.852 43.0111 121.567 42.9789C120.962 42.9697 120.439 42.9945 119.841 42.9742C119.243 42.9539 118.77 43.0087 118.022 42.8982C117.88 42.881 117.737 42.87 117.604 42.866C117.471 42.862 117.352 42.8651 117.257 42.875C115.944 42.9624 114.404 42.9748 112.728 42.9114C110.433 42.8958 108.053 42.8519 105.755 42.8419C105.08 42.8505 104.443 42.8735 103.85 42.9106C103.399 42.9331 102.926 42.9483 102.434 42.9562C102.057 42.9632 101.696 42.9425 101.76 43.0638C101.823 43.1852 101.259 43.1092 100.933 43.0868C99.8143 43.028 98.6711 42.9483 97.5159 42.8487C96.3777 42.7405 95.2624 42.6775 94.2369 42.6636C93.4962 42.6554 92.7324 42.6863 91.7801 42.5205C91.8164 42.4593 91.8526 42.3981 92.0599 42.3342C91.2833 42.1584 90.3972 42.0071 89.475 41.8929C88.5527 41.7787 87.6207 41.7048 86.7562 41.6773L85.564 41.3446C85.2705 41.3055 84.9708 41.277 84.6832 41.2609C84.3957 41.2448 84.1262 41.2414 83.8912 41.2508C83.7097 41.2557 83.4884 41.2433 83.268 41.216C83.0476 41.1887 82.843 41.1483 82.6916 41.1023C82.4652 41.0437 82.1887 40.9931 81.8967 40.957C81.6046 40.9208 81.3101 40.9006 81.0499 40.8989C80.2308 40.8627 79.3564 40.7792 78.5163 40.6568C78.2983 40.5851 78.1617 40.5109 78.1233 40.4436C78.085 40.3762 78.1466 40.3186 78.3005 40.2777C78.5487 40.2056 78.688 40.1137 78.7101 40.0077C78.7322 39.9016 78.6366 39.7835 78.429 39.6606C78.3227 39.5852 78.2872 39.5137 78.3246 39.4506C78.362 39.3875 78.4716 39.334 78.6466 39.2934C79.3001 39.1056 79.1253 39.0004 78.0561 38.6888C77.8825 38.6369 77.6731 38.5883 77.4413 38.5462C77.2096 38.5042 76.9605 38.4695 76.7099 38.4444C76.1219 38.3937 75.5419 38.3559 74.9806 38.3318C74.6649 38.2927 74.3412 38.3242 73.9774 38.3091C72.1586 38.2331 71.8924 38.1105 71.3034 37.8465L70.8741 37.656C70.0779 37.5016 69.2072 37.3735 68.3246 37.2807C67.442 37.1879 66.5696 37.1328 65.7702 37.1194C65.4524 37.1184 65.0871 37.092 64.7302 37.0443C63.5688 36.8985 62.3927 36.7976 61.2797 36.7483C60.5861 36.7206 59.8385 36.6488 59.1266 36.5415C58.4147 36.4343 57.7687 36.2962 57.2664 36.1438C56.8152 36.0065 56.2249 35.8833 55.5777 35.7913C54.82 35.6975 54.7498 35.5873 55.1729 35.5023C55.596 35.4174 56.3047 35.308 56.9337 35.2187C57.1526 35.1884 57.2882 35.139 57.3254 35.0762C57.3627 35.0133 57.3001 34.9394 57.1447 34.8627C57.0449 34.7314 57.0276 34.6068 57.0932 34.492C57.1283 34.4443 57.1041 34.3896 57.0222 34.3315C56.9404 34.2735 56.8028 34.2135 56.6187 34.1557C56.4346 34.0978 56.2084 34.0433 55.9552 33.996C55.702 33.9486 55.4277 33.9095 55.1509 33.8812C53.9828 33.7365 52.8463 33.5957 51.6551 33.49C51.1559 33.4402 50.6572 33.3784 50.1713 33.3062C49.1766 33.1277 48.1125 32.9797 47.0407 32.8707C46.532 32.822 46.0347 32.7368 45.6563 32.6336C44.463 32.3555 43.3635 32.0631 42.3776 31.7617C42.14 31.6682 41.8291 31.577 41.4643 31.4938C41.0996 31.4106 40.6889 31.3372 40.2581 31.2782C39.9109 31.2352 39.6282 31.1405 39.3605 31.0775C39.166 30.9316 39.1452 30.7966 39.3001 30.6852C39.4551 30.5738 39.7806 30.4897 40.2462 30.4407C40.6877 30.3819 41.1009 30.3136 41.4825 30.2415C41.9426 30.1831 42.4895 30.1481 43.103 30.1376C43.8295 30.1063 44.3668 30.0167 44.6447 29.8806C42.6557 29.6343 40.7643 29.2806 39.021 29.3633L37.6964 29.1395C37.7491 29.0505 37.7953 28.9726 37.8381 28.9003C38.1532 28.7686 38.2516 28.6026 38.125 28.4163C38.0206 28.3261 38.0301 28.2441 38.1523 28.1785C38.2745 28.1129 38.5051 28.066 38.8209 28.0426C40.6915 27.8025 42.8547 27.6404 44.6088 27.368C45.1588 27.3169 45.8027 27.2936 46.5133 27.2993C47.2008 27.2829 47.172 27.1599 46.3809 27.0082C45.9368 26.9289 45.4842 26.8529 45.0247 26.7805C42.9986 26.7684 42.1732 27.132 39.8611 27.0308L38.7895 26.5517C38.4997 26.5443 38.2184 26.5414 37.9475 26.543L34.0706 26.7376C33.7477 26.7474 33.4963 26.7807 33.3451 26.8337C33.1939 26.8868 33.1488 26.9575 33.215 27.0378C33.2412 27.136 33.1878 27.2261 33.0567 27.3048C32.9722 27.3599 33.0263 27.4332 33.2071 27.5086C33.6147 27.6785 33.0917 27.7033 32.7614 27.746C32.677 27.7502 32.5797 27.7497 32.475 27.7447C32.3704 27.7396 32.2606 27.7301 32.1519 27.7167C32.0432 27.7032 31.9379 27.6861 31.842 27.6663C31.7462 27.6465 31.6616 27.6244 31.5934 27.6013C31.0114 27.4397 30.5024 27.2691 29.9304 27.0908C30.3365 26.9201 29.8587 26.64 30.4924 26.4856C30.5633 26.4547 30.5916 26.4171 30.5757 26.3751C30.5599 26.3331 30.5 26.2875 30.4 26.2412C30.1419 26.1217 30.019 26.0051 30.0437 25.9033C30.0683 25.8015 30.2396 25.7181 30.5403 25.6614L30.5766 25.6002C29.7835 25.3945 29.9936 25.2115 29.6822 24.9938L28.9193 24.8515C27.0213 24.5089 27.018 24.5145 25.3839 24.5271C25.0545 24.3967 25.473 24.3769 25.7868 24.362L28.4151 24.2157C30.1335 24.118 31.9018 24.0504 33.8214 24.0134C35.741 23.9765 37.8811 23.8533 39.8652 23.7647C39.9655 23.7578 40.0423 23.7442 40.089 23.7251C40.1357 23.7059 40.151 23.6817 40.1338 23.6546C40.0549 23.6252 39.9516 23.5969 39.8317 23.5717C39.7117 23.5465 39.5781 23.5251 39.4406 23.509C38.8092 23.4308 38.1613 23.3804 37.4885 23.315L36.2341 23.2015L35.8482 23.0522C35.5971 22.9613 35.4255 22.8505 35.0914 22.7852C34.8161 22.7366 34.5172 22.6996 34.2259 22.6782C33.9346 22.6569 33.6616 22.6518 33.4352 22.6637C32.8076 22.6935 32.2398 22.7366 31.6405 22.7759C31.0411 22.8151 30.7108 22.8578 30.1911 22.877C29.1352 22.8858 28.1147 22.9089 27.1341 22.9463C26.3082 23.0348 25.5442 23.1397 24.8471 23.2602C24.4122 23.3079 24.0055 23.365 23.2629 23.3029C22.9106 23.2466 22.6067 23.1726 22.4051 23.0941C22.2035 23.0155 22.1173 22.9375 22.1617 22.8739C22.2015 22.824 22.3143 22.7846 22.4894 22.7592C22.6645 22.7339 22.8961 22.7235 23.1624 22.7291C23.9078 22.7199 24.5971 22.6891 25.2164 22.6371C26.0783 22.543 27.1276 22.5024 28.303 22.5178C28.7016 22.5313 28.9688 22.4808 29.3175 22.4643C29.6662 22.4477 29.9616 22.4067 30.3503 22.4369C31.558 22.5148 32.137 22.3954 32.8607 22.3179C33.1057 22.2835 33.2575 22.2279 33.2994 22.1572C33.3413 22.0865 33.2717 22.0035 33.0982 21.9173C32.7641 21.7456 32.3555 21.5729 31.8787 21.402C31.6333 21.3179 31.3189 21.2381 30.9601 21.1689C30.6014 21.0996 30.208 21.0426 29.811 21.0025C29.5733 20.8974 29.4466 20.794 29.4421 20.7017C29.4377 20.6093 29.5557 20.5311 29.7855 20.4739C30.3712 20.3433 30.8904 20.2106 32.2026 20.2835C32.8196 20.3114 33.4002 20.3167 33.9215 20.2993C35.0776 20.2755 36.4112 20.3277 37.7966 20.4508C38.155 20.4824 38.5073 20.5039 38.8431 20.5147C41.2381 20.5904 43.5201 20.6282 45.8086 20.6548C47.021 20.6676 48.2432 20.6638 49.5089 20.7011C52.4769 20.782 55.1786 20.7404 58.0434 20.7668C59.5438 20.7803 60.8868 20.7258 62.0019 20.6061C62.219 20.5659 62.4055 20.5191 62.5592 20.4661C61.8203 20.327 61.0086 20.2169 60.202 20.1462C59.3953 20.0756 58.6207 20.0469 57.9524 20.0627C57.585 20.1017 57.1101 20.1088 56.5807 20.0833C56.0513 20.0578 55.4882 20.0007 54.9542 19.9183V19.9183L56.5068 19.8718C57.5363 19.85 58.5908 19.8432 59.5921 19.812C61.1828 19.7581 62.6571 19.672 64.3043 19.6371C65.6343 19.6051 66.8243 19.5231 67.8372 19.3939C68.569 19.2996 69.4047 19.2328 70.3274 19.1947C70.9833 19.1744 70.9833 19.1744 71.4026 18.9815C71.07 18.8567 70.6398 18.8392 70.2346 18.8368C67.8052 18.7583 65.4932 18.7445 63.3458 18.7958C62.2623 18.8004 61.3011 18.8533 60.5084 18.952C60.3142 18.9937 59.8176 18.9739 59.419 18.9604C58.1693 18.9398 56.975 18.9458 55.8502 18.9783C54.2952 19.0324 52.5633 19.0195 50.7218 18.9403C50.3726 18.8433 50.7746 18.8513 50.7943 18.8179C52.2206 18.7556 53.6186 18.6839 55.0732 18.6312C55.4708 18.6124 55.8958 18.6031 56.3435 18.6034C58.0147 18.6361 59.4074 18.5455 60.3264 18.3442C60.3725 18.2663 60.9771 18.2755 61.2442 18.225C61.3756 18.1813 61.4632 18.1298 61.5042 18.0721C61.115 17.9283 60.6749 17.9275 60.3362 17.9274C59.3531 17.9434 58.4073 17.9739 57.5035 18.0185C56.6632 18.061 55.7332 18.0723 54.7385 18.0523C54.0044 18.033 53.3768 18.0628 52.6361 18.0546C52.2343 18.0375 51.8184 18.0101 51.3968 17.9728C51.8662 17.8726 52.5042 17.811 53.266 17.7923C53.8437 17.7324 54.566 17.7144 54.6583 17.5586C54.3855 17.4472 54.0816 17.4454 53.8375 17.4569C53.3294 17.4565 52.8387 17.4635 52.3679 17.478C51.3695 17.5096 50.2886 17.5101 49.1478 17.4793C48.547 17.4678 47.977 17.4712 47.4473 17.4896C46.2467 17.5141 45.0961 17.5687 43.9968 17.5938C41.745 17.6195 39.6912 17.7115 37.5275 17.76C37.046 17.772 36.6143 17.8141 35.9796 17.7415C35.3449 17.6688 35.3167 17.6594 35.2417 17.6142C35.0641 17.539 35.0103 17.466 35.0914 17.4105C35.2173 17.3586 35.4626 17.3297 35.7835 17.329C37.7177 17.2465 39.5523 17.1306 41.2757 16.982C42.0341 16.9523 42.6986 16.8916 43.2461 16.8021C43.6803 16.7404 44.1953 16.6996 44.775 16.6809C45.6182 16.6363 46.4972 16.6037 47.4085 16.5831C47.8325 16.572 48.193 16.539 48.4689 16.4859C48.7447 16.4329 48.9303 16.361 49.0147 16.2744L47.8975 15.9867C47.722 15.9733 47.5479 15.9617 47.3759 15.952L38.1034 16.1592L37.1851 16.1649C36.1787 16.1477 35.9327 16.1053 34.978 15.7721C37.1568 15.6937 38.8695 15.4652 39.9456 15.1093C39.687 15.0711 39.4219 15.0382 39.1564 15.0116C37.4152 14.9274 35.7692 14.9051 34.2819 14.9454C33.3984 14.9494 32.49 14.9384 31.5783 14.933C31.8449 14.7689 32.8664 14.8178 33.5322 14.7808C35.123 14.723 36.5297 14.6034 37.7074 14.426C38.1134 14.3569 38.6214 14.3127 39.208 14.2954C39.7951 14.2894 40.2855 14.2476 40.6366 14.1734C40.9877 14.0993 41.1887 13.9951 41.2222 13.87C41.2775 13.7567 41.3967 13.6515 41.578 13.5558C41.2573 13.42 40.7481 13.29 40.1459 13.1901C39.5437 13.0902 38.89 13.0274 38.3074 13.0133C37.0636 12.9574 35.7735 12.8659 34.47 12.7411C33.8207 12.6782 33.184 12.642 32.6013 12.6351C32.0874 12.6297 31.5032 12.5843 30.938 12.5056C30.3728 12.427 29.8574 12.3195 29.4706 12.1996C28.9485 12.0513 28.4612 11.9014 27.974 11.7514C27.4868 11.6015 26.9214 11.4121 26.3526 11.2281C25.8511 11.1994 25.3628 11.1809 24.8943 11.1729C24.5298 11.1797 24.1044 11.1596 23.6684 11.1152C23.2324 11.0707 22.8039 11.0036 22.4336 10.9219V10.9219C22.6508 10.8413 22.8964 10.7702 23.155 10.6768C22.8 10.5535 22.5426 10.4278 22.3984 10.3073C22.2543 10.1868 22.2265 10.074 22.3167 9.97582C22.3694 9.8868 21.9835 9.73747 21.8501 9.61943C21.6784 9.51767 21.6462 9.42271 21.7576 9.34699C21.869 9.27127 22.1188 9.21833 22.4744 9.19511C22.9154 9.15226 23.2743 9.08773 23.5364 9.00416C23.6231 8.98247 23.6672 8.95276 23.6648 8.91775C23.6623 8.88274 23.6133 8.84355 23.5223 8.80376C23.4312 8.76398 23.3011 8.72486 23.1437 8.68999C22.9863 8.65512 22.8067 8.62561 22.6213 8.60417C22.0534 8.54337 21.4894 8.50396 20.9617 8.48821C20.0527 8.45922 19.1824 8.44102 18.3509 8.43359C17.4313 8.4224 16.4083 8.35339 15.3857 8.23355C14.4701 8.12016 13.6493 8.01849 13.2016 7.80181C12.754 7.58512 12.0382 7.59202 11.4878 7.43428C11.797 7.29208 12.3465 7.19329 13.0809 7.14786C13.5615 7.13164 13.9626 7.08908 14.2586 7.02289C14.5546 6.95671 14.7389 6.86837 14.7997 6.76354L13.1288 6.32369C11.7944 6.11661 11.0561 6.27599 9.61422 6.19297L11.0998 6.03059C11.1297 6.01455 11.1409 5.9957 11.1328 5.97496C10.9886 5.64655 10.7591 5.57633 9.24042 5.39421L8.38806 5.28864L7.039 5.16336C6.82293 5.09605 6.67352 5.02587 6.60562 4.95982C6.53772 4.89377 6.55374 4.83417 6.6521 4.78699C6.84975 4.70763 6.90985 4.60623 6.82686 4.49212C6.69601 4.41652 6.68523 4.34684 6.79633 4.29515C6.90744 4.24345 7.13344 4.21302 7.43512 4.20914C7.6759 4.20312 7.69378 4.11576 7.82476 4.06629C7.9549 3.99811 8.17766 3.94579 8.47784 3.91289C8.77802 3.87999 9.14852 3.86728 9.56428 3.87564C10.79 3.88247 11.9415 3.85687 12.9983 3.79931L12.8088 3.77585C13.9103 3.82639 14.9401 3.83251 15.848 3.79394C16.7578 3.74539 17.9255 3.77653 18.8919 3.74693C19.6786 3.75372 20.2776 3.68652 20.5617 3.55959C20.8368 3.4384 21.8367 3.46668 22.6024 3.48985C23.0559 3.50484 23.4943 3.51119 23.9128 3.50883C24.4745 3.4814 25.1768 3.50725 25.9026 3.58209C26.1204 3.60509 26.3349 3.61726 26.5256 3.61743C28.3707 3.64889 30.2125 3.6859 32.0327 3.70232C32.4529 3.69286 32.9455 3.71452 33.4529 3.76474C33.6661 3.78654 33.8737 3.79558 34.0476 3.79062C36.9237 3.74074 40.1692 3.868 42.9888 3.79918C43.3305 3.78292 43.7088 3.77954 44.1131 3.78913C45.0214 3.82956 45.8101 3.80354 46.3596 3.71502C46.6561 3.66795 47.0362 3.64201 47.4757 3.63885C47.9151 3.6357 48.4043 3.65541 48.912 3.69672C49.7569 3.75142 50.5378 3.75735 51.1723 3.71389C52.4093 3.67374 53.7102 3.65723 55.0648 3.66449C55.4798 3.67152 55.8446 3.65591 56.131 3.61889C56.4174 3.58186 56.6176 3.52441 56.7162 3.45098C56.3835 3.32617 56.0198 3.31098 55.6744 3.32196C54.3358 3.29352 53.0004 3.25951 51.6867 3.24611C50.5109 3.20782 49.3827 3.19612 48.3187 3.21117C47.7904 3.22815 47.1311 3.18944 46.4848 3.10348C45.6927 2.99462 44.8769 2.94054 44.2023 2.95217C43.7022 2.95506 43.1743 2.94568 42.6262 2.92418C42.2754 2.89824 41.9159 2.85371 41.5844 2.79515C41.4529 2.76972 41.3098 2.74833 41.1641 2.73236C41.0185 2.71639 40.8737 2.7062 40.7389 2.70242C40.604 2.69864 40.4819 2.70136 40.3807 2.71041C40.2796 2.71946 40.2014 2.73464 40.1511 2.75498C39.6437 2.92504 38.509 2.83826 37.5374 2.81945C36.0814 2.53162 34.9978 2.70198 33.637 2.53941C33.5294 2.52863 33.4233 2.5221 33.3254 2.52024C33.2274 2.51838 33.1396 2.52121 33.0673 2.52857C30.4338 2.62642 27.3645 2.54487 24.5996 2.57866C24.2947 2.5836 23.9408 2.56667 23.5781 2.52978C21.2078 2.28564 18.9289 2.21632 17.1869 2.3354C16.9749 2.34612 16.7338 2.34658 16.4745 2.33675C15.2834 2.23972 14.1444 2.20103 13.1526 2.22392C11.5981 2.21653 10.1036 2.22252 8.52414 2.20009C7.43539 2.16818 6.48028 2.20227 5.75447 2.29898C5.73139 2.33793 5.24792 2.29596 4.87756 2.2919C4.66457 2.19385 4.47991 2.10529 4.26032 2.01838C4.06402 1.91085 3.76997 1.80203 3.39819 1.69932C3.02641 1.5966 2.58562 1.50239 2.10551 1.42304C1.28469 1.32138 1.2026 1.17386 1.77696 1.11958C3.25739 0.940019 5.11894 0.866526 7.22479 0.904496C8.98514 0.90753 10.7771 0.914483 12.5624 0.932555C13.6038 0.948059 14.7015 0.982496 15.7146 0.988526C16.0564 1.00178 16.4076 1.0213 16.7644 1.04689C17.2023 1.084 17.6274 1.10421 18.0169 1.10646C19.2675 1.07521 20.6632 1.10243 22.1374 1.18682C22.6774 1.20522 23.1959 1.21142 23.6852 1.20534C24.8429 1.18243 26.0979 1.19928 27.417 1.25546C28.2369 1.28714 29.0319 1.3037 29.7937 1.30498C30.0628 1.30844 30.2819 1.28183 30.541 1.30198C32.8221 1.51283 34.4373 1.36053 36.4902 1.44161C37.488 1.46422 38.4413 1.46429 39.3367 1.44181C41.084 1.44289 42.8801 1.46601 44.7176 1.51106C47.1475 1.58508 49.3993 1.5594 51.7194 1.58996C52.1775 1.59638 52.6198 1.59529 53.043 1.58668C55.102 1.5298 57.3384 1.54186 59.6976 1.62257C60.2333 1.63423 60.7144 1.61997 61.1109 1.5807C61.5073 1.54143 61.8106 1.47798 62.0016 1.39434C62.0824 1.33693 62.0301 1.26237 61.8546 1.18503C61.5634 1.08626 61.2346 0.989492 60.8735 0.896311L47.741 0.583635C47.1894 0.567307 46.6515 0.558517 46.1301 0.557302C44.5963 0.554584 43.0154 0.530259 41.3951 0.484449C39.794 0.441419 38.2645 0.449058 36.7134 0.436103C36.2565 0.431763 35.7875 0.421524 35.3083 0.405414C32.0696 0.277911 28.9115 0.200033 25.8562 0.172341C24.5709 0.168411 23.1823 0.109895 21.8719 0.0909284C20.5615 0.0719618 18.7696 0.0650172 17.2151 0.0576252L12.4025 0.0587603C11.4559 0.0549865 10.5342 0.0662461 9.61589 0.0719458C8.50146 -0.334816 8.11743 -0.430158 6.63034 -0.608366C6.12159 -0.674103 5.60411 -0.713333 5.13857 -0.721461C3.66235 -0.689305 1.81009 -0.82316 0.410199 -0.805439C-0.434511 -0.81418 -1.15129 -0.768993 -1.66675 -0.674502C-2.11421 -0.600345 -2.62588 -0.541666 -3.19387 -0.499353C-4.74979 -0.847328 -4.88691 -1.07333 -3.7165 -1.16128C-3.3994 -1.18172 -2.96261 -1.1754 -2.73362 -1.2187C-2.60224 -1.24507 -2.42275 -1.26015 -2.20946 -1.26276C-1.99617 -1.26537 -1.75499 -1.25543 -1.50482 -1.23372C-0.715281 -1.17678 0.0247479 -1.16338 0.64101 -1.19489C1.22098 -1.23659 1.9319 -1.23492 2.70523 -1.19005C3.27349 -1.11967 3.77297 -1.21905 4.26441 -1.24776C4.75585 -1.27648 5.15914 -1.32805 5.92672 -1.2509C6.06727 -1.23554 6.20682 -1.22632 6.33464 -1.22394C6.46247 -1.22157 6.57518 -1.22611 6.66413 -1.2372C7.48853 -1.28689 8.4723 -1.28167 9.53555 -1.22197C11.1663 -1.16322 12.6963 -1.16102 14.0726 -1.21544C14.8964 -1.26305 15.5989 -1.34749 16.1524 -1.46546C16.3033 -1.50492 16.5273 -1.52858 16.803 -1.53417C18.1878 -1.50956 19.6913 -1.41692 21.2167 -1.26224C21.7914 -1.20026 22.3653 -1.15123 22.9262 -1.1162C24.079 -1.03839 25.194 -0.994789 26.2382 -0.986687C27.7554 -0.985402 29.3351 -0.955463 30.9633 -0.897142C31.968 -0.864669 32.9362 -0.852683 33.8563 -0.861316C34.802 -0.865386 35.8117 -0.840615 36.8625 -0.78758C37.9076 -0.744362 38.8285 -0.769263 39.5143 -0.85927C39.7402 -0.907771 39.9221 -0.965366 40.0566 -1.03098C38.5265 -1.24448 36.9441 -1.35299 35.6279 -1.33465C35.1279 -1.34879 34.7128 -1.33451 34.186 -1.41767L34.1695 -1.38985C34.0647 -1.3718 33.9065 -1.36755 33.7252 -1.37789C33.5438 -1.38824 33.352 -1.41246 33.1862 -1.44595V-1.44595C33.2488 -1.55166 33.3082 -1.6518 33.3511 -1.72413C34.3539 -1.71137 35.3276 -1.7124 36.2673 -1.72724C37.0593 -1.74858 38.1346 -1.56166 38.8201 -1.63202C40.1574 -1.54403 41.0088 -1.66552 42.208 -1.63046C43.4071 -1.59541 44.7279 -1.4796 45.9271 -1.44455C46.9735 -1.42531 47.9895 -1.42113 48.9695 -1.43202C49.3078 -1.44731 49.6977 -1.44373 50.1154 -1.42148C50.7026 -1.37963 51.2488 -1.37261 51.6913 -1.40125C52.1338 -1.42988 52.4547 -1.49301 52.6174 -1.58339C52.4642 -1.66805 52.2579 -1.77721 52.0199 -1.89029C52.4577 -1.98321 53.1225 -2.02233 53.9159 -2.00185L55.0369 -2.00633C55.3339 -2.00388 55.561 -2.029 55.6711 -2.07649C55.7813 -2.12399 55.7661 -2.19022 55.6286 -2.2615C53.5031 -2.62031 53.4248 -2.65986 51.8647 -2.42907L49.7934 -2.53632L49.8283 -2.53796ZM77.8451 -1.55232L77.6873 -1.57187L77.8451 -1.55232ZM335.978 36.623L335.942 36.6842L335.981 36.6174L336.328 36.6604L336.351 36.6215L335.978 36.623ZM285.557 9.799C285.067 9.73223 284.571 9.67085 284.074 9.61522C283.943 9.6066 283.822 9.60465 283.718 9.60954C283.615 9.61444 283.534 9.62602 283.481 9.64333C283.441 9.71009 283.719 9.75641 283.971 9.78769C284.29 9.82979 284.615 9.85655 284.914 9.8652C285.213 9.87384 285.474 9.86408 285.671 9.83689L285.956 9.81253L285.557 9.799ZM32.7375 26.0709C33.0607 26.0821 33.3671 26.0839 33.6493 26.0763C34.9012 26.0224 36.0998 25.9439 37.3833 25.8938C39.0028 25.7668 40.8637 25.715 42.8962 25.7405C43.6903 25.753 44.3611 25.7118 44.8305 25.6218C45.1114 25.5735 45.4741 25.5452 45.8962 25.5388L51.2696 25.3921C51.6017 25.3617 51.8889 25.319 52.1243 25.2651C51.6508 25.2064 51.3351 25.1673 51.1457 25.1439C50.7526 25.1373 50.4148 25.1551 50.1661 25.1957C49.8989 25.2645 49.4473 25.2917 48.9009 25.2719C48.3494 25.2556 47.8115 25.2468 47.29 25.2456C46.3052 25.249 45.3138 25.2636 44.3257 25.2726C43.9412 25.4639 42.8066 25.3771 41.835 25.3583L41.0844 25.3668C38.6309 25.466 36.2872 25.6024 34.0648 25.7754C33.6352 25.8047 33.2652 25.8514 32.966 25.9141C32.8533 25.9629 32.8172 26.0239 32.8605 26.0921L32.7027 26.0725L32.7375 26.0709ZM142.301 44.3585C142.897 44.3715 143.516 44.3983 144.152 44.4384C144.641 44.4793 145.119 44.5042 145.565 44.5119C148.068 44.5548 150.676 44.6538 153.354 44.8077C153.704 44.831 154.04 44.8424 154.35 44.8415L156.542 44.8025C157.233 44.7805 157.246 44.7583 156.743 44.4631C156.326 44.4058 155.904 44.3535 155.48 44.3067C155.228 44.2754 154.817 44.2246 154.721 44.2724C154.136 44.4029 153.068 44.3184 152.169 44.2907C149.568 44.2194 146.886 44.1141 144.26 44.0277C143.704 44.0066 143.167 43.9959 142.652 43.9958C142.332 43.9914 142.041 43.9997 141.79 44.0205C141.717 44.0226 141.655 44.0288 141.61 44.0386C141.565 44.0484 141.536 44.0617 141.527 44.0774C141.517 44.0932 141.527 44.1112 141.556 44.1302C141.584 44.1491 141.63 44.1686 141.691 44.1874C141.906 44.2531 142.154 44.316 142.428 44.3741L142.301 44.3585ZM161.355 1.51677L163.917 1.48178C164.224 1.47802 164.485 1.43863 164.814 1.45548C166.568 1.50887 168.193 1.494 169.618 1.4115C170.103 1.37783 170.671 1.3711 171.29 1.39167C173.186 1.45264 174.974 1.45515 176.606 1.39912C177.661 1.38788 178.648 1.35012 179.553 1.2864C179.623 1.2716 179.667 1.25152 179.681 1.22752C179.695 1.20352 179.68 1.17616 179.636 1.14731C179.624 1.12908 179.593 1.10947 179.545 1.08984C179.496 1.0702 179.432 1.051 179.355 1.03356C179.278 1.01613 179.192 1.00087 179.101 0.988832C179.01 0.976795 178.918 0.968263 178.83 0.963837C177.686 0.877585 176.601 0.847537 175.662 0.876132C174.792 0.910346 173.855 0.920357 172.866 0.90601C171.919 0.902236 171.277 1.0138 170.107 0.928672C169.613 0.90064 169.176 0.909868 168.872 0.954812C168.259 1.02931 167.404 1.03345 166.459 0.966505C165.893 0.932625 165.353 0.918096 164.858 0.923472C163.657 0.947963 162.51 0.996964 161.398 1.04431C161.047 1.05527 160.671 1.05678 160.277 1.04881L154.706 0.956098C153.368 0.927658 152.032 0.893654 150.719 0.880251C149.644 0.851148 148.644 0.860263 147.754 0.907273C146.805 0.956684 145.771 0.976744 144.669 0.967073C142.959 0.994113 141.258 1.00446 139.396 1.00082C138.209 1.00305 136.993 0.995823 135.753 0.97355C135.125 0.944883 134.592 0.968229 134.257 1.03909C134.053 1.09743 133.573 1.0499 133.174 1.03636C131.048 0.905869 129.054 0.874949 127.331 0.945756C127.111 0.957294 126.87 0.961471 126.612 0.958216C124.953 0.955784 123.234 0.939968 121.642 0.939793C121.222 0.945294 120.828 0.96039 120.463 0.984889C120.502 1.02486 120.613 1.06818 120.774 1.10586C120.935 1.14355 121.132 1.17271 121.326 1.1873C122.832 1.29896 124.286 1.35795 125.628 1.36179C127.86 1.34756 130.199 1.37954 132.62 1.45739C134.498 1.53586 136.21 1.51934 137.63 1.40905C138.739 1.32675 140.183 1.35771 141.712 1.49662C142.366 1.56296 143.002 1.58949 143.531 1.57258C144.04 1.5504 144.624 1.55578 145.25 1.5884C146.568 1.65044 147.836 1.67922 149.028 1.67417C150.194 1.65133 151.281 1.58895 152.479 1.57002C153.676 1.55109 155.499 1.56194 156.976 1.52978C158.452 1.49763 159.912 1.49329 161.355 1.51677ZM55.1825 -1.73747C55.3178 -1.56545 55.7965 -1.45838 56.3116 -1.41251C58.0871 -1.20883 59.8425 -1.12216 61.283 -1.16704C62.0611 -1.22964 63.0985 -1.20554 64.1912 -1.09948C65.4635 -0.989229 66.6527 -0.970944 67.5493 -1.04785C67.769 -1.06129 67.9371 -1.0897 68.0389 -1.13054C68.0587 -1.16393 68.0949 -1.22512 68.1015 -1.23625C68.0073 -1.26447 67.8918 -1.29062 67.7639 -1.31267C67.6359 -1.33473 67.499 -1.35211 67.3637 -1.36347L61.4823 -1.56039L60.4574 -1.60372C58.5854 -1.71725 56.8016 -1.76248 55.1825 -1.73747V-1.73747ZM66.7511 0.985269C67.669 1.26617 67.6722 1.26059 68.1425 1.32481C70.4112 1.59154 72.6783 1.73552 74.6741 1.73962C75.1177 1.73881 75.4942 1.7117 75.7716 1.66056C75.9144 1.65363 76.0052 1.63161 76.0244 1.5993C76.0435 1.56699 75.9894 1.52701 75.8738 1.48809L75.1439 1.29019C73.8183 1.20452 72.5118 1.13645 71.2321 1.08638C69.7422 1.02727 68.4219 1.02498 66.8773 1.0009L66.7511 0.985269ZM142.191 43.1147C143.047 43.5013 143.05 43.4957 144.482 43.5954C145.48 43.6661 146.448 43.7076 147.357 43.7186C148.468 43.7308 149.607 43.7525 150.715 43.7702C150.986 43.7826 151.215 43.7723 151.359 43.7416C151.502 43.7108 151.55 43.6616 151.492 43.6037C151.346 43.5407 151.119 43.4799 150.846 43.4309C150.574 43.382 150.272 43.3479 149.991 43.3342L149.386 43.325C148.652 43.3057 147.89 43.277 147.181 43.2728C146.721 43.2888 146.188 43.2764 145.623 43.2366C145.059 43.1967 144.479 43.1305 143.928 43.0431L142.191 43.1147ZM71.3183 -1.23198C71.5467 -1.16503 71.805 -1.10091 72.0863 -1.04131C73.1757 -0.876142 74.3287 -0.782331 75.3192 -0.778271C75.7876 -0.768039 76.2159 -0.804571 76.6927 -0.751484C77.548 -0.680545 78.3768 -0.642757 79.1345 -0.640166C79.1345 -0.640166 79.3469 -0.655656 79.4167 -0.658963L79.5618 -0.903759C79.2031 -0.960468 78.829 -1.0068 78.4568 -1.04061C77.2077 -1.10574 75.9802 -1.15027 74.7561 -1.20036C73.5319 -1.25045 73.1051 -1.27346 72.3045 -1.29497C71.9474 -1.28315 71.6171 -1.26205 71.3183 -1.23198ZM44.268 29.201L45.9027 29.702C46.4317 29.7456 46.9258 29.7534 47.31 29.7245C47.6942 29.6955 47.9473 29.6313 48.0309 29.5416C48.1655 29.4996 48.179 29.4374 48.0685 29.3681C47.958 29.2987 47.732 29.2276 47.4381 29.1696C47.1552 29.1008 46.8323 29.0392 46.4893 28.9885C46.1462 28.9378 45.7905 28.8991 45.4441 28.8748L44.268 29.201ZM57.8782 26.7063C56.809 26.6213 55.7864 26.5866 54.8885 26.6047C54.3228 26.6544 53.5563 26.6386 52.7461 26.5603C51.2727 26.4045 49.8523 26.3613 48.7848 26.44C48.7848 26.44 48.7452 26.5067 48.5642 26.5261C48.3833 26.5455 49.1009 26.5926 49.2588 26.6122C50.4165 26.66 51.5808 26.6967 52.5873 26.7139C53.2121 26.7131 53.873 26.7289 54.5587 26.761C55.5021 26.8104 56.3967 26.8264 57.2077 26.8084C57.2077 26.8084 57.5215 26.7935 57.8749 26.7118L57.8782 26.7063ZM172.059 0.609016C171.548 0.514654 170.995 0.437961 170.439 0.384697C169.884 0.331433 169.341 0.30298 168.853 0.301466C168.478 0.296542 168.175 0.321456 167.992 0.372269C167.808 0.423083 167.754 0.496896 167.839 0.582036C168.218 0.628957 168.723 0.691516 169.007 0.726706C169.992 0.723263 170.832 0.678016 172.059 0.609016ZM267.653 8.56089C267.243 8.48493 266.792 8.42685 266.351 8.39329C265.909 8.35973 265.495 8.35204 265.156 8.37109C264.982 8.37936 265.1 8.46567 265.071 8.51575C265.051 8.5271 265.051 8.54122 265.071 8.55663C265.091 8.57203 265.13 8.58817 265.183 8.60333C265.237 8.61849 265.303 8.63212 265.375 8.6428C265.447 8.65347 265.522 8.6608 265.593 8.66401C266.037 8.69674 266.457 8.70648 266.814 8.69236C267.171 8.67825 267.455 8.64073 267.64 8.58315L267.653 8.56089ZM274.058 9.64679C273.995 9.60196 273.86 9.55525 273.678 9.5152C273.497 9.47515 273.28 9.44445 273.069 9.42875C272.696 9.42664 272.357 9.43907 272.065 9.46557C271.747 9.48601 271.976 9.61579 272.404 9.69279C272.586 9.72369 272.78 9.7478 272.971 9.76319C273.162 9.77858 273.345 9.78483 273.505 9.78145C273.665 9.77806 273.797 9.76513 273.892 9.74369C273.987 9.72224 274.042 9.69288 274.052 9.65792L274.058 9.64679ZM87.9456 -0.755217C86.99 -0.915373 86.2545 -0.875082 85.4455 -0.939452C84.6364 -1.00382 84.4371 -1.01059 84.5455 -0.907591C84.6539 -0.804587 85.2085 -0.825477 85.5558 -0.782467C86.025 -0.725395 86.497 -0.692624 86.919 -0.687811C87.3411 -0.682997 87.6966 -0.706336 87.9456 -0.755217V-0.755217ZM287.071 26.3435C286.565 26.3076 286.069 26.2822 285.591 26.2677C285.528 26.2826 285.488 26.3021 285.475 26.325C285.461 26.348 285.474 26.3739 285.512 26.4013C285.512 26.4013 285.836 26.4832 286.025 26.5067C286.723 26.5871 286.757 26.4719 287.071 26.3435V26.3435ZM358.608 41.2652C358.951 41.3733 359.111 41.4468 359.385 41.4987C359.511 41.5167 359.641 41.5298 359.766 41.537C359.891 41.5442 360.007 41.5453 360.106 41.5402C360.226 41.5091 360.255 41.4614 360.185 41.4067C360.185 41.4067 359.836 41.3097 359.703 41.3052C359.324 41.2823 358.956 41.2689 358.608 41.2652V41.2652ZM71.6801 -1.6709C70.954 -1.76084 70.2594 -1.84686 69.7567 -1.74191C70.9097 -1.62897 70.9097 -1.62896 71.6801 -1.6709ZM83.4406 -0.644315C82.7074 -0.836646 82.2772 -0.8541 81.9252 -0.832001C81.8504 -0.826435 81.8009 -0.81403 81.7842 -0.796668C81.7675 -0.779307 81.7845 -0.757932 81.8326 -0.735775C81.8807 -0.713619 81.9574 -0.69189 82.0509 -0.673872C82.1445 -0.655854 82.2499 -0.642527 82.3512 -0.635913C82.7336 -0.630377 83.0982 -0.633188 83.4406 -0.644315V-0.644315ZM121.177 -0.562986C121.193 -0.590804 121.213 -0.624184 121.024 -0.647645C120.974 -0.659554 120.916 -0.669796 120.855 -0.677345C120.794 -0.684895 120.732 -0.689482 120.677 -0.690649C120.677 -0.690649 120.657 -0.657267 120.644 -0.635013L121.177 -0.562986ZM147.382 45.6208L146.96 45.6462L147.15 45.6696L147.65 45.6838L147.382 45.6208ZM295.868 9.21272C295.71 9.19317 295.552 9.17362 295.529 9.21256C295.496 9.2186 295.475 9.2273 295.469 9.23795C295.462 9.24859 295.471 9.26087 295.493 9.27376C295.493 9.27376 295.714 9.30114 295.808 9.31287L295.868 9.21272ZM271.284 9.5242C271.18 9.52197 271.087 9.52458 271.009 9.53187C271.009 9.53187 270.989 9.56525 270.989 9.56525L271.305 9.60435L271.284 9.5242ZM57.0444 17.4779C56.9225 17.4576 56.7932 17.4416 56.6656 17.431L56.5077 17.4114C56.5077 17.4114 56.6773 17.4683 56.772 17.48C56.8667 17.4917 56.9431 17.4773 57.0444 17.4779Z" fill="#DF6951"/>
</g>
</svg>
